<svg xmlns="http://www.w3.org/2000/svg" width="480" height="560" viewBox="0 0 480 560" role="img" aria-label="Deposit Desk open door">
  <defs>
    <linearGradient id="hero-bg" x1="0" y1="0" x2="0" y2="1">
      <stop offset="0" stop-color="#faf7f0"/>
      <stop offset="1" stop-color="#e8eef4"/>
    </linearGradient>
    <linearGradient id="hero-door-light" x1="0" y1="0" x2="0" y2="1">
      <stop offset="0" stop-color="#fffef8"/>
      <stop offset="1" stop-color="#d4e4d0"/>
    </linearGradient>
  </defs>
  <rect width="480" height="560" fill="url(#hero-bg)"/>
  <rect x="24" y="24" width="432" height="512" rx="14" fill="#f4f0e6" stroke="#d9d0c0" stroke-width="1.25"/>
  <text x="240" y="72" text-anchor="middle" fill="#3d3429" font-family="Georgia, serif" font-size="22" font-weight="600">Deposit Desk</text>
  <text x="240" y="98" text-anchor="middle" fill="#6b5c4a" font-family="system-ui, sans-serif" font-size="13">Itemize · date · keep the clock</text>
  <path d="M140 108h200" stroke="#c9a227" stroke-width="2.5" stroke-linecap="round"/>
  <rect x="88" y="128" width="36" height="320" fill="#7a4038" fill-opacity="0.12" rx="2"/>
  <rect x="356" y="128" width="36" height="320" fill="#7a4038" fill-opacity="0.12" rx="2"/>
  <rect x="124" y="148" width="232" height="280" rx="3" fill="#3d3429" fill-opacity="0.06"/>
  <rect x="134" y="158" width="96" height="260" rx="2" fill="url(#hero-door-light)" stroke="#3d3429" stroke-width="1.5"/>
  <path d="M230 158 L230 418" stroke="#3d3429" stroke-width="1.5"/>
  <path d="M134 158 L230 210 L230 366 L134 418 Z" fill="#faf7f0" stroke="#3d3429" stroke-width="1.5" stroke-linejoin="round"/>
  <path d="M230 210 L346 158 L346 418 L230 366 Z" fill="#4a6741" fill-opacity="0.32" stroke="#3d3429" stroke-width="1.5"/>
  <text x="182" y="298" text-anchor="middle" fill="#3d3429" font-family="Georgia, serif" font-size="28" font-weight="600">SP</text>
  <circle cx="198" cy="318" r="3.5" fill="#c9a227"/>
  <path d="M230 158 L346 158" stroke="#c9a227" stroke-width="2" stroke-linecap="round"/>
  <text x="240" y="468" text-anchor="middle" fill="#3b5a78" font-family="system-ui, sans-serif" font-size="12" font-weight="600">18 states + DC</text>
  <text x="240" y="492" text-anchor="middle" fill="#6b5c4a" font-family="system-ui, sans-serif" font-size="11">Start free · not legal advice</text>
</svg>
