<svg xmlns="http://www.w3.org/2000/svg" width="1200" height="630" viewBox="0 0 1200 630" role="img" aria-label="Deposit Desk · paperwork ready · Founded in Chicago · 19 states + DC">
  <defs>
    <linearGradient id="share-bg" x1="0" y1="0" x2="1" y2="1">
      <stop offset="0" stop-color="#faf7f0"/>
      <stop offset="1" stop-color="#e8eef4"/>
    </linearGradient>
    <linearGradient id="door-light" x1="0" y1="0" x2="0" y2="1">
      <stop offset="0" stop-color="#fffef8"/>
      <stop offset="1" stop-color="#d4e4d0"/>
    </linearGradient>
  </defs>
  <rect width="1200" height="630" fill="url(#share-bg)"/>
  <rect x="40" y="40" width="1120" height="550" rx="20" fill="#f4f0e6" stroke="#d9d0c0" stroke-width="1.5"/>
  <text x="72" y="108" fill="#3d3429" font-family="Georgia, serif" font-size="38" font-weight="600">Simple Property Tools</text>
  <text x="72" y="148" fill="#6b5c4a" font-family="system-ui,sans-serif" font-size="24">Itemize it. Date it. Never pay the fees.</text>
  <path d="M72 162h520" stroke="#c9a227" stroke-width="4" stroke-linecap="round"/>
  <text x="72" y="192" fill="#3b5a78" font-family="system-ui,sans-serif" font-size="21" font-weight="600">Deposit Desk · Founded in Chicago · 19 states + DC</text>
<rect x="72" y="212" width="580" height="100" rx="12" fill="#fffef8" stroke="#c9a227" stroke-width="2.5"/>
<text x="100" y="256" fill="#3d3429" font-family="system-ui,sans-serif" font-size="22" font-weight="700">Paperwork ready.</text>
<text x="100" y="281" fill="#6b5c4a" font-family="system-ui,sans-serif" font-size="17" font-weight="400">Lower cleanup cost if counsel gets involved.</text>
<g>
  <rect x="72" y="326" width="84" height="56" rx="8" fill="#e6ebe0" stroke="#5a7a52" stroke-width="1.6"/>
  <text x="114" y="352" text-anchor="middle" font-family="system-ui,sans-serif" font-size="15" font-weight="700" fill="#4a6741">IL</text>
  <text x="114" y="370" text-anchor="middle" font-family="system-ui,sans-serif" font-size="12" fill="#6b5c4a">Chicago</text>
</g>
<g>
  <rect x="168" y="326" width="84" height="56" rx="8" fill="#e6ebe0" stroke="#5a7a52" stroke-width="1.6"/>
  <text x="210" y="352" text-anchor="middle" font-family="system-ui,sans-serif" font-size="15" font-weight="700" fill="#4a6741">FL</text>
  <text x="210" y="370" text-anchor="middle" font-family="system-ui,sans-serif" font-size="12" fill="#6b5c4a">Miami</text>
</g>
<g>
  <rect x="264" y="326" width="84" height="56" rx="8" fill="#e6ebe0" stroke="#5a7a52" stroke-width="1.6"/>
  <text x="306" y="352" text-anchor="middle" font-family="system-ui,sans-serif" font-size="15" font-weight="700" fill="#4a6741">DC</text>
  <text x="306" y="370" text-anchor="middle" font-family="system-ui,sans-serif" font-size="12" fill="#6b5c4a">DC</text>
</g>
  <text x="72" y="400" fill="#6b5c4a" font-family="system-ui,sans-serif" font-size="16">Surrender · deadline · itemize · preview free · mail-ready PDF</text>
  <text x="72" y="428" fill="#6b5c4a" font-family="system-ui,sans-serif" font-size="14">Not legal advice · documentation only</text>
  <g transform="translate(720, 88) scale(0.92)">
  <rect x="0" y="0" width="56" height="420" fill="#7a4038" fill-opacity="0.12" rx="3"/>
  <rect x="344" y="0" width="56" height="420" fill="#7a4038" fill-opacity="0.12" rx="3"/>
  <rect x="48" y="24" width="304" height="376" rx="5" fill="#3d3429" fill-opacity="0.05" stroke="#3d3429" stroke-width="1.5" stroke-opacity="0.35"/>
  <rect x="56" y="32" width="288" height="360" rx="4" fill="#3d3429" fill-opacity="0.08" stroke="#3d3429" stroke-width="2.25"/>
  <rect x="68" y="44" width="120" height="336" rx="2" fill="url(#door-light)" stroke="#3d3429" stroke-width="2"/>
  <path d="M188 44 L188 380" stroke="#3d3429" stroke-width="2"/>
  <path d="M68 44 L188 112 L188 312 L68 380 Z" fill="#faf7f0" stroke="#3d3429" stroke-width="2" stroke-linejoin="round"/>
  <path d="M188 112 L320 44 L320 380 L188 312 Z" fill="#4a6741" fill-opacity="0.38" stroke="#3d3429" stroke-width="2"/>
  <circle cx="176" cy="214" r="5" fill="#c9a227" stroke="#3d3429" stroke-width="1"/>
  <text x="128" y="222" text-anchor="middle" fill="#3d3429" font-family="Georgia, serif" font-size="38" font-weight="600">SP</text>
  <path d="M188 44 L320 44" stroke="#c9a227" stroke-width="4" stroke-linecap="round"/>
  <rect x="332" y="168" width="8" height="88" rx="2" fill="#c9a227" fill-opacity="0.35"/>
</g>
  <text x="960" y="548" text-anchor="middle" fill="#6b5c4a" font-family="system-ui,sans-serif" font-size="18">simple-property.com</text>
</svg>
